<svg width="32" height="32" viewBox="0 0 32 32" fill="none" xmlns="http://www.w3.org/2000/svg">
<path d="M31.9999 16.0819L17.2946 30.792L22.4339 16.0819H31.9999Z" fill="#F3CF00"/>
<path d="M25.74 7.74315C25.74 7.4766 25.958 7.25815 26.225 7.25815H26.6225V6.86568C26.6225 6.59913 26.8359 6.38068 27.1075 6.38068C27.3741 6.38068 27.5925 6.59866 27.5925 6.86568V7.25815H27.985C28.2516 7.25815 28.47 7.47613 28.47 7.74315C28.47 8.01454 28.252 8.22815 27.985 8.22815H27.5925V8.62568C27.5925 8.89224 27.3745 9.11069 27.1075 9.11069C26.8361 9.11069 26.6225 8.8927 26.6225 8.62568V8.22815H26.225C25.9584 8.22769 25.74 8.01454 25.74 7.74315Z" fill="#F3CF00"/>
<path d="M22.4337 15.0007L20.1887 8.58112H25.1437C25.4202 8.58112 25.6816 8.68769 25.8856 8.88657L31.9946 15.0003L22.4337 15.0007Z" fill="#F3CF00"/>
<path d="M8.80017 4.18908C8.80017 3.92252 9.01816 3.70407 9.28517 3.70407H9.6827V3.31114C9.6827 3.04459 9.89609 2.82614 10.1677 2.82614C10.4343 2.82614 10.6527 3.04413 10.6527 3.31114V3.70361H11.0452C11.3117 3.70361 11.5302 3.9216 11.5302 4.18862C11.5302 4.45517 11.3122 4.67362 11.0452 4.67362H10.6527V5.06609C10.6527 5.33748 10.4347 5.55109 10.1677 5.55109C9.89632 5.55109 9.6827 5.33771 9.6827 5.06609V4.67362H9.28517C9.01816 4.67362 8.80017 4.45563 8.80017 4.18908Z" fill="#F3CF00"/>
<path d="M9.56105 16.0819L14.7055 30.792L0.00012207 16.0819H9.56105Z" fill="#F3CF00"/>
<path d="M14.6377 5.68187C14.6377 5.41532 14.8511 5.19687 15.1227 5.19687H15.5152V4.8044C15.5152 4.53785 15.7332 4.3194 16.0002 4.3194C16.2672 4.3194 16.4852 4.53738 16.4852 4.8044V5.19687H16.8776C17.1442 5.19687 17.3626 5.41485 17.3626 5.68187C17.3626 5.95326 17.1447 6.16687 16.8776 6.16687H16.4852V6.56441C16.4852 6.83096 16.2672 7.04941 16.0002 7.04941C15.7332 7.04941 15.5152 6.83142 15.5152 6.56441V6.16687H15.1227C14.8511 6.16687 14.6377 5.95349 14.6377 5.68187Z" fill="#F3CF00"/>
<path d="M9.56099 15.0006H0L6.10901 8.88688C6.3125 8.68777 6.57445 8.58142 6.85091 8.58142H11.8107L9.56099 15.0006Z" fill="#F3CF00"/>
<path d="M14.6377 1.36223C14.6377 1.09568 14.8511 0.877228 15.1227 0.877228H15.5152V0.484759C15.5152 0.213368 15.7332 -0.000244141 16.0002 -0.000244141C16.2672 -0.000244141 16.4852 0.213138 16.4852 0.484759V0.877228H16.8776C17.1442 0.877228 17.3626 1.09521 17.3626 1.36223C17.3626 1.62925 17.1447 1.84723 16.8776 1.84723H16.4852V2.2397C16.4852 2.50626 16.2672 2.72471 16.0002 2.72471C15.7332 2.72471 15.5152 2.50672 15.5152 2.2397V1.84723H15.1227C14.8511 1.84723 14.6377 1.62925 14.6377 1.36223Z" fill="#F3CF00"/>
<path d="M3.52979 7.74315C3.52979 7.4766 3.74777 7.25815 4.01479 7.25815H4.40726V6.86568C4.40726 6.59913 4.62524 6.38068 4.89226 6.38068C5.16365 6.38068 5.37726 6.59866 5.37726 6.86568V7.25815H5.77479C6.04135 7.25815 6.2598 7.47613 6.2598 7.74315C6.2598 8.01454 6.04181 8.22815 5.77479 8.22815H5.37726V8.62568C5.37726 8.89224 5.16388 9.11069 4.89226 9.11069C4.62571 9.11069 4.40726 8.8927 4.40726 8.62568V8.22815H4.01479C3.74824 8.22769 3.52979 8.01454 3.52979 7.74315Z" fill="#F3CF00"/>
<path d="M10.7054 15.0007L12.9551 8.5817H19.0446L21.2892 15.0007H10.7054Z" fill="#F3CF00"/>
<path d="M21.2946 16.0819L16.0001 31.2139L10.7056 16.0819H21.2946Z" fill="#F3CF00"/>
<path d="M20.4702 4.18908C20.4702 3.92252 20.6882 3.70407 20.9552 3.70407H21.3477V3.31114C21.3477 3.04459 21.5657 2.82614 21.8327 2.82614C22.0997 2.82614 22.3177 3.04413 22.3177 3.31114V3.70361H22.7102C22.9816 3.70361 23.1952 3.9216 23.1952 4.18862C23.1952 4.45517 22.9818 4.67362 22.7102 4.67362H22.3177V5.06609C22.3177 5.33748 22.0997 5.55109 21.8327 5.55109C21.5657 5.55109 21.3477 5.33771 21.3477 5.06609V4.67362H20.9548C20.6882 4.67362 20.4702 4.45563 20.4702 4.18908Z" fill="#F3CF00"/>
</svg>
