<svg width="34" height="30" viewBox="0 0 34 30" fill="none" xmlns="http://www.w3.org/2000/svg">
<path d="M0.861937 17.3436L0.0053319 9.02804C-0.0302674 8.63545 0.11238 8.20725 0.433774 7.95756C0.826368 7.63641 1.43307 7.52936 1.8971 8.029C2.21824 8.386 2.36113 9.52795 2.43233 9.84909C2.61083 10.9554 2.78933 12.4902 2.82493 13.5965V13.8465C2.86052 14.3105 2.96757 14.7743 3.18192 15.2027C4.28822 17.6295 6.53677 20.6632 6.53677 20.6632L6.64382 20.8417C6.75086 20.9843 6.92936 21.0202 7.07201 20.9487C7.25051 20.8773 7.28611 20.6632 7.17906 20.4847L4.21685 15.6665C3.89571 15.1313 4.07421 14.3817 4.64505 14.0247C5.21613 13.6677 5.96549 13.8462 6.28688 14.3817L9.35615 18.3432C9.57025 18.5931 9.92723 18.9854 10.2128 19.164C12.9606 21.1625 13.3177 23.1611 13.5673 24.1959C13.5673 24.1959 13.6029 24.41 13.6029 24.767C13.6029 25.0526 13.6029 25.3737 13.5673 25.7307L13.3889 29.0497C13.3889 29.2996 13.1748 29.4779 12.9607 29.4779L7.78579 29.4423C7.53584 29.4423 7.35759 29.2282 7.35759 29.0141L7.25054 26.2659L2.28949 20.3417C1.57577 19.5566 1.07612 18.6999 0.897613 17.665L0.861937 17.3436ZM3.71714 13.0254V13.3109C3.82418 13.2039 3.93123 13.1324 4.03828 13.061C4.18093 12.9539 4.35943 12.8825 4.50232 12.8469C4.50232 12.8469 4.50232 12.8113 4.53792 12.8113C4.43087 11.9547 4.10972 10.3131 3.89564 9.49229C3.78859 9.0641 3.53864 8.77857 3.11048 8.63569C3.21753 8.92123 3.25312 9.20677 3.28897 9.49229C3.46722 10.4199 3.68131 12.1332 3.71717 13.0254L3.71714 13.0254ZM5.39453 12.5969V12.704C5.64447 12.704 5.89416 12.7754 6.14413 12.8466C6.07268 12.2755 5.68009 11.1692 5.53744 10.6696C5.4304 10.2414 5.18045 9.95585 4.75228 9.81297C4.89493 10.4552 5.25192 11.5974 5.32337 12.2041L5.39453 12.5969ZM22.8465 19.1637C20.0984 21.1623 19.7414 23.1609 19.4917 24.1957C19.4917 24.1957 19.4561 24.4098 19.4561 24.7668C19.4561 25.0523 19.4561 25.3735 19.4917 25.7305L19.6702 29.0494C19.6702 29.2994 19.8843 29.4776 20.0984 29.4776L25.2733 29.442C25.5232 29.442 25.7015 29.2279 25.7015 29.0138L25.8085 26.2657L30.7337 20.3412C31.4474 19.5561 31.947 18.6994 32.1255 17.6645L32.1611 17.3434L33.0536 9.02782C33.0892 8.63522 32.9466 8.20703 32.6254 7.92152C32.2328 7.60037 31.6261 7.49332 31.1621 7.99297C30.841 8.34996 30.6981 9.49191 30.6269 9.81305C30.4484 10.9194 30.2699 12.4541 30.2343 13.5605V13.8104C30.1987 14.2745 30.0916 14.7383 29.8773 15.1667C28.771 17.5934 26.5224 20.6271 26.5224 20.6271L26.4154 20.8056C26.3084 20.9483 26.1299 20.9841 25.9872 20.9127C25.8087 20.8412 25.7731 20.6271 25.8802 20.4486L28.8424 15.6305C29.1635 15.0952 28.985 14.3457 28.4142 13.9886C27.8431 13.6316 27.0937 13.8101 26.7723 14.3456L23.7031 18.3071C23.4887 18.5927 23.132 18.9853 22.8465 19.1637L22.8465 19.1637ZM29.0207 13.0607C29.1278 13.1322 29.2348 13.2034 29.3419 13.3107V13.0251C29.3419 12.1329 29.5918 10.4199 29.7345 9.49185C29.7701 9.20631 29.8415 8.92077 29.913 8.63525C29.4848 8.7779 29.2348 9.09929 29.1278 9.49185C28.9137 10.3485 28.5926 11.9545 28.4855 12.8108C28.4855 12.8108 28.4855 12.8464 28.5211 12.8464C28.6996 12.8823 28.8781 12.9537 29.0207 13.0608L29.0207 13.0607ZM27.6645 12.5967L27.7359 12.1685C27.8074 11.5618 28.1641 10.4197 28.307 9.77734C27.8788 9.91999 27.6288 10.2414 27.5218 10.6339C27.3792 11.1692 27.0222 12.2758 26.9151 12.811C27.1651 12.7395 27.4148 12.6683 27.6647 12.6683C27.6645 12.6681 27.6645 12.6325 27.6645 12.5966L27.6645 12.5967ZM7.7142 9.27774L8.03534 8.92075C8.39234 8.52816 8.42794 7.99289 8.17799 7.52887L7.92805 7.13628C7.57105 6.52959 7.8566 5.70884 8.49913 5.45888L8.92733 5.28039C9.39136 5.06629 9.71249 4.60223 9.67692 4.10264L9.64133 3.63861C9.60573 2.92489 10.1766 2.31817 10.8906 2.3538L11.3546 2.3894C11.8542 2.42499 12.3539 2.10385 12.5324 1.63979L12.7109 1.2116C12.9608 0.533443 13.7816 0.247929 14.3882 0.604917L14.8164 0.819014C15.2805 1.06896 15.8157 0.997511 16.2083 0.640517L16.5653 0.319371C17.1005 -0.180265 17.9216 -0.0732228 18.3498 0.497868L18.6353 0.890462C18.9209 1.31866 19.4561 1.49715 19.9558 1.3545L20.4198 1.21185C21.0979 0.997753 21.8117 1.4618 21.9543 2.13971L22.0257 2.60374C22.0972 3.10338 22.5254 3.49597 23.025 3.56741L23.4891 3.63886C24.2028 3.74591 24.6668 4.45965 24.4528 5.13781L24.3101 5.60184C24.1675 6.10148 24.3457 6.6367 24.7741 6.92228L25.1667 7.17223C25.7734 7.56482 25.8449 8.42148 25.3808 8.95669L25.0597 9.31368C24.7027 9.70627 24.6671 10.2415 24.917 10.7056L25.167 11.0982C25.524 11.7048 25.2384 12.5256 24.5959 12.7755L24.1677 12.954C23.7037 13.1681 23.3825 13.6322 23.4181 14.1318L23.4537 14.5958C23.4893 15.3095 22.9185 15.9163 22.2045 15.8806L21.7404 15.845C21.2408 15.8094 20.7411 16.1306 20.5627 16.5946L20.3842 17.0228C20.1342 17.701 19.3134 17.9865 18.7068 17.6295L18.2786 17.4154C17.8146 17.1655 17.2793 17.2369 16.8867 17.5939L16.5297 17.9151C15.9945 18.4147 15.1735 18.3077 14.7453 17.7366L14.4597 17.344C14.1742 16.9158 13.6389 16.7373 13.1393 16.8799L12.6752 17.0226C11.9971 17.2367 11.2834 16.7726 11.1407 16.0947L11.0693 15.6307C10.9978 15.1311 10.5696 14.7385 10.07 14.667L9.60595 14.5956C8.89223 14.4885 8.4282 13.7748 8.64228 13.0966L8.78492 12.6326C8.92757 12.1329 8.74932 11.5977 8.32089 11.3122L7.9283 11.0622C7.35721 10.634 7.25014 9.81295 7.7142 9.27774ZM12.211 9.42039L15.4231 12.6325L17.065 10.9907L20.8479 7.24329L19.2061 5.60146L15.4231 9.34914L13.8527 7.74319L12.211 9.42039Z" fill="#87B1E3"/>
</svg>
