<svg width="33" height="33" viewBox="0 0 33 33" fill="none" xmlns="http://www.w3.org/2000/svg">
<path d="M32.5502 14.6056L30.1527 13.7336C30.0075 13.2977 29.7896 12.8619 29.6442 12.426L30.7338 10.1013C30.879 9.8106 30.8065 9.51994 30.5886 9.30199L26.8108 5.52422C26.5929 5.30629 26.2295 5.23356 26.0115 5.37902L23.6868 6.46864C23.2509 6.25071 22.8151 6.10552 22.3792 5.96005L21.5075 3.56285C21.4348 3.27219 21.1444 3.05426 20.8537 3.05426H15.5502C15.2595 3.05426 14.9689 3.27219 14.8964 3.56285L14.0247 5.96032C13.8067 6.03305 13.5888 6.10552 13.3709 6.25098L16.858 9.73807C17.2938 9.66534 17.8024 9.59287 18.2383 9.59287C22.8878 9.59287 26.6654 13.3706 26.6654 18.02C26.6654 21.7251 23.5414 25.0669 20.1995 26.1571C19.6909 26.3023 19.1823 26.4477 18.2379 26.4477C13.5884 26.4477 9.81074 22.67 9.81074 18.0206C9.81074 17.6575 9.81074 17.294 9.88347 16.931L6.32359 13.3711C6.25086 13.5163 6.25086 13.589 6.1784 13.7342L3.78093 14.6059C3.49027 14.6787 3.27234 14.9691 3.27234 15.2597V20.5632C3.27234 20.8539 3.49027 21.1446 3.78093 21.217L6.1784 22.0888C6.32359 22.5246 6.54152 22.9605 6.68699 23.3963L5.59737 25.7211C5.52438 26.0842 5.52438 26.3749 5.7423 26.5928L9.52008 30.3706C9.73801 30.5885 10.1014 30.6612 10.3193 30.5158L12.6441 29.4262C13.0799 29.6441 13.5158 29.7893 13.9517 29.9347L14.8234 32.3322C14.8961 32.6229 15.1865 32.8408 15.4772 32.8408H20.7807C21.0714 32.8408 21.362 32.6229 21.4345 32.3322L22.3062 29.9347C22.7421 29.7896 23.1779 29.5716 23.6138 29.4262L25.9385 30.5158C26.2292 30.661 26.5199 30.5885 26.7378 30.3706L30.5156 26.5928C30.7335 26.3749 30.8062 26.0842 30.6608 25.7935V25.7208L29.5712 23.4688C29.7891 23.0329 29.9343 22.5971 30.0797 22.1612L32.4772 21.2895C32.7679 21.2167 32.9858 20.9264 32.9858 20.6357V15.3322C33.0588 14.9688 32.8409 14.7508 32.5502 14.6056V14.6056Z" fill="#F78676"/>
<path d="M8.06686 3.34469L1.01996 0.0754952C0.80203 -0.0696995 0.438905 0.00302943 0.220961 0.220953C0.00301693 0.438877 -0.0696983 0.729543 0.0755032 1.01995L3.34469 7.99399L8.06686 3.34469Z" fill="#F78676"/>
<path d="M9.22983 4.21667L7.12305 6.32346L23.1786 22.379C23.9051 21.6525 24.4862 20.708 24.8496 19.7636C22.089 17.0754 11.991 6.97715 9.22983 4.21667Z" fill="#F78676"/>
<path d="M6.3237 7.12225L4.21692 9.22904C7.92197 12.9341 16.1317 21.1439 19.691 24.7031C20.6354 24.4124 21.5798 23.9038 22.3791 23.1773L6.3237 7.12225Z" fill="#F78676"/>
</svg>
