<svg width="122" height="138" viewBox="0 0 122 138" fill="none" xmlns="http://www.w3.org/2000/svg">
<path d="M18.8429 40.1719L20.1551 39.0476L15.8755 29.156L24.9665 34.9251L26.2514 33.8242L20.7637 21.3884L19.3969 22.5596L22.7671 30.1726C23.0052 30.7271 23.3019 31.3499 23.8522 32.3243C23.0695 31.715 22.4877 31.3127 21.8669 30.9202L14.8314 26.4713L13.3825 27.7127L16.6864 35.3589C16.9811 36.0071 17.2407 36.6143 17.7559 37.5477C16.9751 36.913 16.3934 36.5107 15.8116 36.1084L8.83081 31.6127L7.43659 32.8073L18.8429 40.1719Z" fill="white"/>
<path d="M18.8429 40.1719L18.0293 41.432L18.9692 42.0389L19.8189 41.3109L18.8429 40.1719ZM20.1551 39.0476L21.1311 40.1866L21.971 39.467L21.5318 38.4519L20.1551 39.0476ZM15.8755 29.156L16.6792 27.8895L12.563 25.2774L14.4988 29.7516L15.8755 29.156ZM24.9665 34.9251L24.1628 36.1916L25.0998 36.7862L25.9425 36.0641L24.9665 34.9251ZM26.2514 33.8242L27.2274 34.9632L28.0737 34.2382L27.6237 33.2186L26.2514 33.8242ZM20.7637 21.3884L22.1361 20.7829L21.321 18.9357L19.7878 20.2494L20.7637 21.3884ZM19.3969 22.5596L18.4209 21.4205L17.5736 22.1465L18.0252 23.1668L19.3969 22.5596ZM22.7671 30.1726L24.1455 29.5808L24.1421 29.573L24.1387 29.5654L22.7671 30.1726ZM23.8522 32.3243L22.9309 33.508L25.1583 31.5865L23.8522 32.3243ZM21.8669 30.9202L21.0653 32.1879L21.0653 32.1879L21.8669 30.9202ZM14.8314 26.4713L15.6331 25.2035L14.6968 24.6114L13.8555 25.3322L14.8314 26.4713ZM13.3825 27.7127L12.4066 26.5736L11.5671 27.2929L12.0056 28.3077L13.3825 27.7127ZM16.6864 35.3589L15.3095 35.9538L15.3151 35.9668L15.3209 35.9796L16.6864 35.3589ZM17.7559 37.5477L16.8098 38.7117L19.0691 36.8227L17.7559 37.5477ZM15.8116 36.1084L16.6648 34.8747L16.6445 34.8606L16.6238 34.8473L15.8116 36.1084ZM8.83081 31.6127L9.64297 30.3516L8.70345 29.7465L7.85484 30.4736L8.83081 31.6127ZM7.43659 32.8073L6.46062 31.6682L4.93352 32.9766L6.62295 34.0674L7.43659 32.8073ZM19.8189 41.3109L21.1311 40.1866L19.1791 37.9085L17.8669 39.0328L19.8189 41.3109ZM21.5318 38.4519L17.2521 28.5604L14.4988 29.7516L18.7784 39.6432L21.5318 38.4519ZM15.0717 30.4225L24.1628 36.1916L25.7703 33.6586L16.6792 27.8895L15.0717 30.4225ZM25.9425 36.0641L27.2274 34.9632L25.2755 32.6851L23.9906 33.786L25.9425 36.0641ZM27.6237 33.2186L22.1361 20.7829L19.3914 21.994L24.8791 34.4298L27.6237 33.2186ZM19.7878 20.2494L18.4209 21.4205L20.3728 23.6987L21.7397 22.5275L19.7878 20.2494ZM18.0252 23.1668L21.3955 30.7798L24.1387 29.5654L20.7685 21.9524L18.0252 23.1668ZM21.3888 30.7643C21.65 31.3727 21.9713 32.0443 22.5462 33.062L25.1583 31.5865C24.6324 30.6556 24.3604 30.0814 24.1455 29.5808L21.3888 30.7643ZM24.7736 31.1406C23.9532 30.5021 23.3316 30.0716 22.6686 29.6524L21.0653 32.1879C21.6438 32.5538 22.1857 32.9279 22.9309 33.508L24.7736 31.1406ZM22.6686 29.6524L15.6331 25.2035L14.0298 27.7391L21.0653 32.1879L22.6686 29.6524ZM13.8555 25.3322L12.4066 26.5736L14.3585 28.8518L15.8074 27.6104L13.8555 25.3322ZM12.0056 28.3077L15.3095 35.9538L18.0634 34.7639L14.7595 27.1177L12.0056 28.3077ZM15.3209 35.9796C15.6085 36.6123 15.8935 37.2777 16.4427 38.2726L19.0691 36.8227C18.5878 35.9509 18.3537 35.4019 18.052 34.7381L15.3209 35.9796ZM18.702 36.3837C17.8735 35.7102 17.2516 35.2805 16.6648 34.8747L14.9584 37.3421C15.5351 37.7409 16.0767 38.1158 16.8098 38.7117L18.702 36.3837ZM16.6238 34.8473L9.64297 30.3516L8.01865 32.8738L14.9995 37.3695L16.6238 34.8473ZM7.85484 30.4736L6.46062 31.6682L8.41255 33.9463L9.80678 32.7518L7.85484 30.4736ZM6.62295 34.0674L18.0293 41.432L19.6565 38.9117L8.25022 31.5471L6.62295 34.0674Z" fill="#2B2B2B"/>
<path d="M43.3761 26.7011L42.9327 25.1242L36.9892 26.7957L35.8733 22.8276L41.2277 21.3218L40.8037 19.8143L35.4494 21.3201L34.3481 17.404L40.2916 15.7325L39.853 14.173L32.2114 16.322L35.7345 28.85L43.3761 26.7011Z" fill="white"/>
<path d="M43.3761 26.7011L43.7822 28.1451L45.2262 27.739L44.8201 26.295L43.3761 26.7011ZM42.9327 25.1242L44.3767 24.7182L43.9706 23.2742L42.5266 23.6803L42.9327 25.1242ZM36.9892 26.7957L35.5453 27.2017L35.9513 28.6457L37.3953 28.2396L36.9892 26.7957ZM35.8733 22.8276L35.4673 21.3836L34.0233 21.7897L34.4294 23.2337L35.8733 22.8276ZM41.2277 21.3218L41.6337 22.7658L43.0777 22.3598L42.6716 20.9158L41.2277 21.3218ZM40.8037 19.8143L42.2477 19.4082L41.8416 17.9643L40.3976 18.3703L40.8037 19.8143ZM35.4494 21.3201L34.0054 21.7261L34.4115 23.1701L35.8555 22.764L35.4494 21.3201ZM34.3481 17.404L33.942 15.96L32.4981 16.366L32.9041 17.81L34.3481 17.404ZM40.2916 15.7325L40.6977 17.1765L42.1416 16.7705L41.7356 15.3265L40.2916 15.7325ZM39.853 14.173L41.297 13.767L40.8909 12.323L39.4469 12.729L39.853 14.173ZM32.2114 16.322L31.8054 14.878L30.3614 15.2841L30.7674 16.7281L32.2114 16.322ZM35.7345 28.85L34.2906 29.2561L34.6966 30.7001L36.1406 30.294L35.7345 28.85ZM44.8201 26.295L44.3767 24.7182L41.4887 25.5303L41.9321 27.1072L44.8201 26.295ZM42.5266 23.6803L36.5832 25.3517L37.3953 28.2396L43.3388 26.5682L42.5266 23.6803ZM38.4332 26.3896L37.3173 22.4215L34.4294 23.2337L35.5453 27.2017L38.4332 26.3896ZM36.2794 24.2716L41.6337 22.7658L40.8216 19.8779L35.4673 21.3836L36.2794 24.2716ZM42.6716 20.9158L42.2477 19.4082L39.3597 20.2204L39.7837 21.7279L42.6716 20.9158ZM40.3976 18.3703L35.0433 19.8761L35.8555 22.764L41.2098 21.2583L40.3976 18.3703ZM36.8934 20.914L35.7921 16.9979L32.9041 17.81L34.0054 21.7261L36.8934 20.914ZM34.7542 18.8479L40.6977 17.1765L39.8855 14.2886L33.942 15.96L34.7542 18.8479ZM41.7356 15.3265L41.297 13.767L38.409 14.5791L38.8476 16.1386L41.7356 15.3265ZM39.4469 12.729L31.8054 14.878L32.6175 17.766L40.2591 15.617L39.4469 12.729ZM30.7674 16.7281L34.2906 29.2561L37.1785 28.444L33.6554 15.9159L30.7674 16.7281ZM36.1406 30.294L43.7822 28.1451L42.9701 25.2571L35.3285 27.406L36.1406 30.294Z" fill="#2B2B2B"/>
<path d="M52.998 14.4438C53.0059 13.4718 52.4348 12.8731 51.7148 12.8673C50.9948 12.8614 50.5227 13.3615 50.5172 14.0455C50.5114 14.7475 50.9762 15.1473 51.5162 15.1517C51.7322 15.1535 51.8945 15.1188 52.021 15.0478C52.0163 15.6238 51.5085 16.0877 50.8055 16.2079L50.7994 16.9639C52.0607 16.8122 52.9873 15.7577 52.998 14.4438Z" fill="white"/>
<path d="M52.021 15.0478L53.521 15.0601L53.5421 12.4754L51.2875 13.7394L52.021 15.0478ZM50.8055 16.2079L50.5526 14.7294L49.3158 14.941L49.3056 16.1957L50.8055 16.2079ZM50.7994 16.9639L49.2994 16.9517L49.2855 18.6568L50.9785 18.4532L50.7994 16.9639ZM54.4979 14.456C54.5043 13.6758 54.2767 12.9135 53.7709 12.3201C53.2567 11.717 52.5218 11.3738 51.727 11.3673L51.7026 14.3672C51.6739 14.367 51.6319 14.3601 51.5861 14.3388C51.5404 14.3175 51.5075 14.2894 51.4879 14.2663C51.4456 14.2168 51.4996 14.2397 51.498 14.4315L54.4979 14.456ZM51.727 11.3673C51.0041 11.3614 50.3052 11.6165 49.7847 12.1398C49.269 12.6581 49.0228 13.3443 49.0172 14.0333L52.0171 14.0578C52.0171 14.0628 52.0097 14.1569 51.9115 14.2556C51.8659 14.3014 51.8151 14.3325 51.7695 14.3503C51.7246 14.3678 51.6986 14.3672 51.7026 14.3672L51.727 11.3673ZM49.0172 14.0333C49.0115 14.7299 49.246 15.4011 49.7364 15.9057C50.2197 16.4029 50.8639 16.6464 51.5039 16.6517L51.5284 13.6518C51.6285 13.6526 51.7703 13.694 51.8877 13.8147C52.0121 13.9428 52.0171 14.0631 52.0171 14.0578L49.0172 14.0333ZM51.5039 16.6517C51.876 16.6547 52.3236 16.5979 52.7546 16.3562L51.2875 13.7394C51.4653 13.6397 51.5883 13.6522 51.5284 13.6518L51.5039 16.6517ZM50.5211 15.0356C50.5217 14.9563 50.5406 14.8809 50.5699 14.8184C50.5981 14.7582 50.6298 14.7228 50.6464 14.7071C50.6757 14.6795 50.6562 14.7117 50.5526 14.7294L51.0585 17.6865C52.1757 17.4953 53.5082 16.6303 53.521 15.0601L50.5211 15.0356ZM49.3056 16.1957L49.2994 16.9517L52.2993 16.9762L52.3055 16.2202L49.3056 16.1957ZM50.9785 18.4532C53.0183 18.2078 54.4813 16.4944 54.4979 14.456L51.498 14.4315C51.4932 15.021 51.103 15.4166 50.6202 15.4747L50.9785 18.4532Z" fill="#2B2B2B"/>
<path d="M61.8573 27.3001L63.3851 22.384L66.565 23.3722L67.3578 29.0094L69.2314 29.5917L68.3339 23.5638C70.0358 23.546 71.2799 22.5755 71.814 20.8566C72.5352 18.5361 71.3918 16.6351 68.7275 15.8072L64.0349 14.3488L60.1728 26.7766L61.8573 27.3001ZM65.2493 16.385L68.2574 17.3198C69.8044 17.8006 70.4869 18.8797 70.0382 20.3236C69.5949 21.7503 68.4393 22.3148 66.8751 21.8287L63.8498 20.8885L65.2493 16.385Z" fill="white"/>
<path d="M61.8573 27.3001L61.4122 28.7325L62.8446 29.1776L63.2897 27.7452L61.8573 27.3001ZM63.3851 22.384L63.8302 20.9516L62.3978 20.5064L61.9526 21.9388L63.3851 22.384ZM66.565 23.3722L68.0504 23.1633L67.918 22.2219L67.0102 21.9398L66.565 23.3722ZM67.3578 29.0094L65.8724 29.2183L66.0048 30.1597L66.9127 30.4419L67.3578 29.0094ZM69.2314 29.5917L68.7863 31.0241L71.0668 31.7328L70.7151 29.3708L69.2314 29.5917ZM68.3339 23.5638L68.3183 22.0639L66.5967 22.0818L66.8502 23.7847L68.3339 23.5638ZM64.0349 14.3488L64.48 12.9164L63.0476 12.4713L62.6025 13.9037L64.0349 14.3488ZM60.1728 26.7766L58.7403 26.3314L58.2952 27.7639L59.7276 28.209L60.1728 26.7766ZM65.2493 16.385L65.6945 14.9526L64.2621 14.5074L63.8169 15.9398L65.2493 16.385ZM63.8498 20.8885L62.4174 20.4434L61.9722 21.8758L63.4046 22.321L63.8498 20.8885ZM63.2897 27.7452L64.8175 22.8291L61.9526 21.9388L60.4249 26.8549L63.2897 27.7452ZM62.9399 23.8164L66.1199 24.8046L67.0102 21.9398L63.8302 20.9516L62.9399 23.8164ZM65.0797 23.5811L65.8724 29.2183L68.8432 28.8005L68.0504 23.1633L65.0797 23.5811ZM66.9127 30.4419L68.7863 31.0241L69.6766 28.1593L67.803 27.577L66.9127 30.4419ZM70.7151 29.3708L69.8175 23.3429L66.8502 23.7847L67.7478 29.8126L70.7151 29.3708ZM68.3495 25.0637C69.4923 25.0518 70.5561 24.7146 71.4333 24.0318C72.3052 23.353 72.9046 22.4019 73.2465 21.3018L70.3816 20.4115C70.1893 21.0302 69.8996 21.4238 69.5904 21.6645C69.2865 21.9011 68.8774 22.058 68.3183 22.0639L68.3495 25.0637ZM73.2465 21.3018C73.7137 19.7983 73.6087 18.2856 72.8217 16.9924C72.0513 15.7264 70.7453 14.8634 69.1727 14.3747L68.2824 17.2396C69.374 17.5788 69.9719 18.0803 70.259 18.552C70.5294 18.9964 70.6356 19.5943 70.3816 20.4115L73.2465 21.3018ZM69.1727 14.3747L64.48 12.9164L63.5897 15.7813L68.2824 17.2396L69.1727 14.3747ZM62.6025 13.9037L58.7403 26.3314L61.6052 27.2217L65.4673 14.794L62.6025 13.9037ZM59.7276 28.209L61.4122 28.7325L62.3025 25.8676L60.6179 25.3441L59.7276 28.209ZM64.8042 17.8174L67.8123 18.7522L68.7026 15.8874L65.6945 14.9526L64.8042 17.8174ZM67.8123 18.7522C68.3576 18.9217 68.551 19.1345 68.6119 19.2354C68.6546 19.3062 68.7306 19.4769 68.6058 19.8784L71.4707 20.7687C71.7946 19.7264 71.7537 18.6356 71.1806 17.6857C70.6257 16.7659 69.7043 16.1987 68.7026 15.8874L67.8123 18.7522ZM68.6058 19.8784C68.4795 20.285 68.3138 20.4 68.2287 20.4407C68.1249 20.4905 67.8554 20.5626 67.3202 20.3963L66.4299 23.2611C67.459 23.5809 68.5494 23.6138 69.5252 23.1461C70.5198 22.6695 71.1536 21.7889 71.4707 20.7687L68.6058 19.8784ZM67.3202 20.3963L64.2949 19.4561L63.4046 22.321L66.4299 23.2611L67.3202 20.3963ZM65.2822 21.3337L66.6818 16.8301L63.8169 15.9398L62.4174 20.4434L65.2822 21.3337Z" fill="#2B2B2B"/>
<path d="M81.4386 37.7518L82.4424 36.4574L77.5634 32.674L80.0894 29.4166L84.4847 32.825L85.4443 31.5875L81.049 28.1791L83.5419 24.9644L88.4208 28.7478L89.4136 27.4676L83.1406 22.6032L75.1657 32.8874L81.4386 37.7518Z" fill="white"/>
<path d="M81.4386 37.7518L80.5194 38.9372L81.7047 39.8564L82.6239 38.671L81.4386 37.7518ZM82.4424 36.4574L83.6277 37.3766L84.5469 36.1912L83.3616 35.272L82.4424 36.4574ZM77.5634 32.674L76.3781 31.7548L75.4589 32.9401L76.6442 33.8593L77.5634 32.674ZM80.0894 29.4166L81.0086 28.2313L79.8232 27.3121L78.904 28.4974L80.0894 29.4166ZM84.4847 32.825L83.5655 34.0104L84.7508 34.9296L85.67 33.7442L84.4847 32.825ZM85.4443 31.5875L86.6297 32.5067L87.5489 31.3213L86.3635 30.4021L85.4443 31.5875ZM81.049 28.1791L79.8637 27.2599L78.9445 28.4453L80.1298 29.3645L81.049 28.1791ZM83.5419 24.9644L84.4611 23.779L83.2757 22.8598L82.3565 24.0452L83.5419 24.9644ZM88.4208 28.7478L87.5016 29.9332L88.687 30.8524L89.6062 29.667L88.4208 28.7478ZM89.4136 27.4676L90.5989 28.3868L91.5181 27.2015L90.3328 26.2823L89.4136 27.4676ZM83.1406 22.6032L84.0598 21.4179L82.8745 20.4987L81.9553 21.684L83.1406 22.6032ZM75.1657 32.8874L73.9803 31.9682L73.0611 33.1536L74.2465 34.0728L75.1657 32.8874ZM82.6239 38.671L83.6277 37.3766L81.257 35.5382L80.2532 36.8326L82.6239 38.671ZM83.3616 35.272L78.4826 31.4886L76.6442 33.8593L81.5232 37.6428L83.3616 35.272ZM78.7488 33.5932L81.2747 30.3358L78.904 28.4974L76.3781 31.7548L78.7488 33.5932ZM79.1702 30.602L83.5655 34.0104L85.4039 31.6396L81.0086 28.2313L79.1702 30.602ZM85.67 33.7442L86.6297 32.5067L84.259 30.6683L83.2993 31.9058L85.67 33.7442ZM86.3635 30.4021L81.9682 26.9937L80.1298 29.3645L84.5251 32.7728L86.3635 30.4021ZM82.2344 29.0983L84.7272 25.8836L82.3565 24.0452L79.8637 27.2599L82.2344 29.0983ZM82.6227 26.1498L87.5016 29.9332L89.34 27.5625L84.4611 23.779L82.6227 26.1498ZM89.6062 29.667L90.5989 28.3868L88.2282 26.5484L87.2355 27.8286L89.6062 29.667ZM90.3328 26.2823L84.0598 21.4179L82.2214 23.7886L88.4944 28.653L90.3328 26.2823ZM81.9553 21.684L73.9803 31.9682L76.351 33.8066L84.326 23.5224L81.9553 21.684ZM74.2465 34.0728L80.5194 38.9372L82.3578 36.5664L76.0849 31.702L74.2465 34.0728Z" fill="#2B2B2B"/>
<path d="M104.113 48.4719L103.495 46.8194L91.3041 51.3731L93.9242 58.3878L95.4587 57.8146L93.4558 52.4525L104.113 48.4719Z" fill="white"/>
<path d="M104.113 48.4719L104.638 49.8771L106.043 49.3522L105.518 47.9471L104.113 48.4719ZM103.495 46.8194L104.901 46.2946L104.376 44.8894L102.971 45.4143L103.495 46.8194ZM91.3041 51.3731L90.7793 49.9679L89.3741 50.4928L89.8989 51.898L91.3041 51.3731ZM93.9242 58.3878L92.5191 58.9126L93.0439 60.3178L94.4491 59.7929L93.9242 58.3878ZM95.4587 57.8146L95.9835 59.2198L97.3887 58.6949L96.8639 57.2898L95.4587 57.8146ZM93.4558 52.4525L92.931 51.0473L91.5258 51.5721L92.0506 52.9773L93.4558 52.4525ZM105.518 47.9471L104.901 46.2946L102.09 47.3443L102.708 48.9968L105.518 47.9471ZM102.971 45.4143L90.7793 49.9679L91.829 52.7783L104.02 48.2246L102.971 45.4143ZM89.8989 51.898L92.5191 58.9126L95.3294 57.8629L92.7093 50.8483L89.8989 51.898ZM94.4491 59.7929L95.9835 59.2198L94.9338 56.4094L93.3994 56.9826L94.4491 59.7929ZM96.8639 57.2898L94.861 51.9276L92.0506 52.9773L94.0535 58.3395L96.8639 57.2898ZM93.9807 53.8576L104.638 49.8771L103.588 47.0667L92.931 51.0473L93.9807 53.8576Z" fill="#2B2B2B"/>
<path d="M101.736 76.8204C105.696 76.8667 108.498 74.3252 108.541 70.6355C108.584 66.9637 105.824 64.3573 101.882 64.3113C97.9225 64.265 95.1209 66.7885 95.078 70.4602C95.0349 74.15 97.7764 76.7742 101.736 76.8204ZM101.758 74.9666C98.752 74.9315 96.7387 73.1438 96.7696 70.498C96.8006 67.8522 98.8368 66.1298 101.861 66.1652C104.884 66.2005 106.862 67.9697 106.831 70.6155C106.8 73.2613 104.782 75.0019 101.758 74.9666Z" fill="white"/>
<path d="M101.719 78.3203C104.025 78.3473 106.098 77.618 107.616 76.2393C109.142 74.8531 110.015 72.8915 110.041 70.653L107.041 70.618C107.024 72.0693 106.474 73.2232 105.599 74.0187C104.715 74.8215 103.407 75.3398 101.754 75.3205L101.719 78.3203ZM110.041 70.653C110.067 68.4186 109.232 66.442 107.738 65.0253C106.252 63.6164 104.199 62.8382 101.9 62.8114L101.865 65.8112C103.508 65.8304 104.805 66.3785 105.674 67.2022C106.534 68.0182 107.058 69.1807 107.041 70.618L110.041 70.653ZM101.9 62.8114C99.5962 62.7845 97.5245 63.5073 96.0061 64.8781C94.4789 66.257 93.6041 68.2106 93.5781 70.4427L96.5779 70.4778C96.5947 69.0381 97.1422 67.8942 98.0165 67.1049C98.8996 66.3076 100.209 65.7918 101.865 65.8112L101.9 62.8114ZM93.5781 70.4427C93.5519 72.6806 94.3781 74.6655 95.8696 76.091C97.3537 77.5096 99.4093 78.2934 101.719 78.3203L101.754 75.3205C100.103 75.3013 98.8082 74.7498 97.9424 73.9223C97.0839 73.1017 96.5609 71.9296 96.5779 70.4778L93.5781 70.4427ZM101.775 73.4667C100.56 73.4525 99.6778 73.0873 99.1244 72.5928C98.5889 72.1143 98.2589 71.4281 98.2695 70.5155L95.2697 70.4805C95.2495 72.2137 95.9106 73.7442 97.1255 74.8298C98.3224 75.8993 99.95 76.4455 101.74 76.4665L101.775 73.4667ZM98.2695 70.5155C98.2802 69.5996 98.6239 68.9281 99.164 68.4693C99.7237 67.9938 100.613 67.6507 101.843 67.6651L101.878 64.6653C100.085 64.6443 98.4437 65.1447 97.2216 66.183C95.9798 67.238 95.29 68.7506 95.2697 70.4805L98.2695 70.5155ZM101.843 67.6651C103.073 67.6794 103.948 68.0429 104.491 68.529C105.015 68.9983 105.342 69.6777 105.331 70.598L108.331 70.633C108.351 68.9075 107.704 67.3793 106.492 66.2938C105.298 65.225 103.672 64.6862 101.878 64.6653L101.843 67.6651ZM105.331 70.598C105.32 71.5191 104.977 72.1968 104.439 72.6586C103.884 73.1357 103.001 73.481 101.775 73.4667L101.74 76.4665C103.538 76.4875 105.177 75.9801 106.394 74.9343C107.629 73.8733 108.311 72.3577 108.331 70.633L105.331 70.598Z" fill="#2B2B2B"/>
<path d="M92.1528 86.3464L91.4152 88.0277L101.366 97.7393L102.104 96.058L95.7701 89.8398C95.3293 89.4106 94.6611 88.7833 93.8444 88.0909C94.843 88.2341 95.6201 88.2998 96.4116 88.3326L105.3 88.7722L106.059 87.0414L92.1528 86.3464Z" fill="white"/>
<path d="M92.1528 86.3464L92.2276 84.8482L91.1946 84.7966L90.7791 85.7438L92.1528 86.3464ZM91.4152 88.0277L90.0415 87.4251L89.6244 88.376L90.3675 89.1012L91.4152 88.0277ZM101.366 97.7393L100.318 98.8128L101.869 100.326L102.74 98.3419L101.366 97.7393ZM102.104 96.058L103.477 96.6606L103.893 95.7128L103.154 94.9876L102.104 96.058ZM95.7701 89.8398L96.8209 88.7695L96.8166 88.7652L95.7701 89.8398ZM93.8444 88.0909L94.0574 86.6061L88.9015 85.8666L92.8744 89.235L93.8444 88.0909ZM96.4116 88.3326L96.4857 86.8344L96.4736 86.8339L96.4116 88.3326ZM105.3 88.7722L105.226 90.2704L106.258 90.3215L106.673 89.3748L105.3 88.7722ZM106.059 87.0414L107.433 87.644L108.307 85.6519L106.134 85.5433L106.059 87.0414ZM90.7791 85.7438L90.0415 87.4251L92.7888 88.6303L93.5264 86.949L90.7791 85.7438ZM90.3675 89.1012L100.318 98.8128L102.414 96.6659L92.4629 86.9542L90.3675 89.1012ZM102.74 98.3419L103.477 96.6606L100.73 95.4554L99.9924 97.1367L102.74 98.3419ZM103.154 94.9876L96.8209 88.7695L94.7192 90.9102L101.053 97.1284L103.154 94.9876ZM96.8166 88.7652C96.3571 88.3178 95.663 87.6663 94.8145 86.9468L92.8744 89.235C93.6591 89.9004 94.3016 90.5035 94.7235 90.9144L96.8166 88.7652ZM93.6315 89.5757C94.6806 89.7262 95.508 89.7965 96.3496 89.8313L96.4736 86.8339C95.7321 86.8032 95.0054 86.7421 94.0574 86.6061L93.6315 89.5757ZM96.3375 89.8307L105.226 90.2704L105.374 87.2741L96.4857 86.8344L96.3375 89.8307ZM106.673 89.3748L107.433 87.644L104.685 86.4389L103.926 88.1696L106.673 89.3748ZM106.134 85.5433L92.2276 84.8482L92.0779 87.8445L105.984 88.5396L106.134 85.5433Z" fill="#2B2B2B"/>
<path d="M93.7836 107.955L94.9433 106.625L85.1371 98.0696L83.9774 99.3988L93.7836 107.955Z" fill="white"/>
<path d="M93.7836 107.955L92.7974 109.085L93.9277 110.071L94.9139 108.941L93.7836 107.955ZM94.9433 106.625L96.0736 107.612L97.0597 106.481L95.9295 105.495L94.9433 106.625ZM85.1371 98.0696L86.1233 96.9393L84.993 95.9531L84.0069 97.0834L85.1371 98.0696ZM83.9774 99.3988L82.8472 98.4126L81.861 99.5429L82.9913 100.529L83.9774 99.3988ZM94.9139 108.941L96.0736 107.612L93.8131 105.639L92.6533 106.968L94.9139 108.941ZM95.9295 105.495L86.1233 96.9393L84.151 99.1998L93.9572 107.756L95.9295 105.495ZM84.0069 97.0834L82.8472 98.4126L85.1077 100.385L86.2674 99.0557L84.0069 97.0834ZM82.9913 100.529L92.7974 109.085L94.7698 106.824L84.9636 98.2685L82.9913 100.529Z" fill="#2B2B2B"/>
<path d="M77.132 105.72L82.2925 114.358L71.4146 109.136L69.9003 110.04L76.5747 121.212L78.0891 120.308L72.9286 111.67L83.8065 116.892L85.3208 115.987L78.6464 104.815L77.132 105.72Z" fill="white"/>
<path d="M77.132 105.72L76.3627 104.432L75.075 105.201L75.8443 106.489L77.132 105.72ZM82.2925 114.358L81.6433 115.71L86.1363 117.867L83.5802 113.588L82.2925 114.358ZM71.4146 109.136L72.0638 107.783L71.3372 107.434L70.6453 107.848L71.4146 109.136ZM69.9003 110.04L69.131 108.753L67.8433 109.522L68.6126 110.81L69.9003 110.04ZM76.5747 121.212L75.287 121.982L76.0563 123.269L77.344 122.5L76.5747 121.212ZM78.0891 120.308L78.8584 121.595L80.1461 120.826L79.3768 119.538L78.0891 120.308ZM72.9286 111.67L73.5778 110.317L69.0848 108.161L71.6409 112.439L72.9286 111.67ZM83.8065 116.892L83.1573 118.244L83.8839 118.593L84.5758 118.18L83.8065 116.892ZM85.3208 115.987L86.0901 117.275L87.3778 116.506L86.6085 115.218L85.3208 115.987ZM78.6464 104.815L79.9341 104.046L79.1648 102.758L77.8771 103.527L78.6464 104.815ZM75.8443 106.489L81.0048 115.127L83.5802 113.588L78.4197 104.951L75.8443 106.489ZM82.9417 113.005L72.0638 107.783L70.7654 110.488L81.6433 115.71L82.9417 113.005ZM70.6453 107.848L69.131 108.753L70.6696 111.328L72.1839 110.423L70.6453 107.848ZM68.6126 110.81L75.287 121.982L77.8624 120.443L71.188 109.271L68.6126 110.81ZM77.344 122.5L78.8584 121.595L77.3198 119.02L75.8054 119.925L77.344 122.5ZM79.3768 119.538L74.2163 110.9L71.6409 112.439L76.8014 121.077L79.3768 119.538ZM72.2794 113.022L83.1573 118.244L84.4557 115.54L73.5778 110.317L72.2794 113.022ZM84.5758 118.18L86.0901 117.275L84.5515 114.7L83.0372 115.604L84.5758 118.18ZM86.6085 115.218L79.9341 104.046L77.3587 105.584L84.0331 116.757L86.6085 115.218ZM77.8771 103.527L76.3627 104.432L77.9013 107.008L79.4157 106.103L77.8771 103.527Z" fill="#2B2B2B"/>
<path d="M58.3156 124.983C56.6013 125.2 55.0687 124.559 54.3785 122.977L52.5213 123.212C53.2642 125.64 55.6664 126.987 58.4879 126.63C62.2915 126.149 64.4746 123.042 63.9772 119.113C63.473 115.131 60.6205 112.807 56.9597 113.27C55.0668 113.51 53.5993 114.53 53.0453 115.744L52.6988 114.009L51.2344 114.195L52.1366 121.32L58.1009 120.565L57.9042 119.011L53.5827 119.558L53.5353 119.183C53.2052 116.576 54.8306 115.227 57.0271 114.949C59.6878 114.612 61.7377 116.185 62.1333 119.31C62.5199 122.364 61.1013 124.63 58.3156 124.983Z" fill="white"/>
<path d="M54.3785 122.977L55.7534 122.377L55.3043 121.348L54.1901 121.489L54.3785 122.977ZM52.5213 123.212L52.3329 121.724L50.5659 121.948L51.087 123.651L52.5213 123.212ZM53.0453 115.744L51.5744 116.037L52.4833 120.585L54.4098 116.367L53.0453 115.744ZM52.6988 114.009L54.1697 113.715L53.896 112.346L52.5103 112.521L52.6988 114.009ZM51.2344 114.195L51.046 112.707L49.5579 112.895L49.7463 114.383L51.2344 114.195ZM52.1366 121.32L50.6484 121.508L50.8369 122.996L52.325 122.808L52.1366 121.32ZM58.1009 120.565L58.2894 122.053L59.7775 121.864L59.5891 120.376L58.1009 120.565ZM57.9042 119.011L59.3924 118.823L59.204 117.335L57.7158 117.523L57.9042 119.011ZM53.5827 119.558L52.0946 119.747L52.283 121.235L53.7712 121.046L53.5827 119.558ZM58.1272 123.495C56.9022 123.65 56.1141 123.204 55.7534 122.377L53.0037 123.577C54.0232 125.914 56.3003 126.75 58.504 126.471L58.1272 123.495ZM54.1901 121.489L52.3329 121.724L52.7098 124.701L54.5669 124.465L54.1901 121.489ZM51.087 123.651C52.0851 126.914 55.2818 128.548 58.6763 128.118L58.2995 125.142C56.051 125.427 54.4433 124.367 53.9557 122.774L51.087 123.651ZM58.6763 128.118C60.9591 127.829 62.8413 126.732 64.0615 125.042C65.2742 123.363 65.7546 121.21 65.4653 118.925L62.489 119.301C62.6971 120.945 62.3347 122.309 61.6294 123.286C60.9315 124.252 59.8203 124.949 58.2995 125.142L58.6763 128.118ZM65.4653 118.925C65.1733 116.618 64.1815 114.671 62.6084 113.369C61.0273 112.061 58.9751 111.503 56.7713 111.782L57.1481 114.758C58.605 114.574 59.8095 114.947 60.6959 115.68C61.5902 116.42 62.2768 117.626 62.489 119.301L65.4653 118.925ZM56.7713 111.782C54.5025 112.069 52.5032 113.32 51.6809 115.12L54.4098 116.367C54.6954 115.741 55.631 114.95 57.1481 114.758L56.7713 111.782ZM54.5162 115.45L54.1697 113.715L51.2278 114.303L51.5744 116.037L54.5162 115.45ZM52.5103 112.521L51.046 112.707L51.4229 115.683L52.8872 115.497L52.5103 112.521ZM49.7463 114.383L50.6484 121.508L53.6247 121.131L52.7226 114.006L49.7463 114.383ZM52.325 122.808L58.2894 122.053L57.9125 119.077L51.9482 119.832L52.325 122.808ZM59.5891 120.376L59.3924 118.823L56.4161 119.199L56.6128 120.753L59.5891 120.376ZM57.7158 117.523L53.3943 118.07L53.7712 121.046L58.0927 120.499L57.7158 117.523ZM55.0709 119.37L55.0234 118.995L52.0471 119.372L52.0946 119.747L55.0709 119.37ZM55.0234 118.995C54.9042 118.054 55.1453 117.527 55.4395 117.206C55.7689 116.847 56.3504 116.547 57.2155 116.437L56.8387 113.461C55.5073 113.63 54.1779 114.143 53.2279 115.179C52.2429 116.254 51.8362 117.706 52.0471 119.372L55.0234 118.995ZM57.2155 116.437C58.1984 116.313 58.9436 116.548 59.4721 116.986C60.0099 117.432 60.4837 118.223 60.6452 119.499L63.6214 119.122C63.3873 117.272 62.6384 115.714 61.3871 114.677C60.1266 113.632 58.5166 113.249 56.8387 113.461L57.2155 116.437ZM60.6452 119.499C60.8054 120.764 60.5726 121.711 60.162 122.333C59.7703 122.927 59.127 123.368 58.1272 123.495L58.504 126.471C60.2899 126.245 61.7488 125.376 62.6662 123.985C63.5646 122.623 63.8478 120.91 63.6214 119.122L60.6452 119.499Z" fill="#2B2B2B"/>
<path d="M43.2658 112.847C42.594 112.718 41.9024 113.172 41.7739 113.844C41.6421 114.534 42.1173 115.211 42.7892 115.339C43.4787 115.471 44.1703 115.017 44.3021 114.328C44.4306 113.656 43.9553 112.978 43.2658 112.847Z" fill="white"/>
<path d="M43.5475 111.373C42.0891 111.094 40.5898 112.05 40.3006 113.562L43.2472 114.126C43.2284 114.224 43.1748 114.276 43.1466 114.294C43.1196 114.312 43.0648 114.335 42.9841 114.32L43.5475 111.373ZM40.3006 113.562C40.0106 115.079 41.0354 116.531 42.5075 116.813L43.0709 113.866C43.1523 113.882 43.1971 113.924 43.2171 113.954C43.2387 113.985 43.2624 114.046 43.2472 114.126L40.3006 113.562ZM42.5075 116.813C43.9838 117.095 45.4829 116.139 45.7754 114.609L42.8288 114.046C42.8442 113.966 42.8901 113.915 42.9241 113.892C42.9568 113.871 43.008 113.854 43.0709 113.866L42.5075 116.813ZM45.7754 114.609C46.0671 113.084 45.0102 111.653 43.5475 111.373L42.9841 114.32C42.9219 114.308 42.8829 114.275 42.8621 114.245C42.841 114.215 42.8098 114.145 42.8288 114.046L45.7754 114.609Z" fill="#2B2B2B"/>
<path d="M34.2234 110.078C33.5951 109.808 32.8218 110.102 32.5517 110.731C32.2744 111.376 32.5925 112.139 33.2209 112.41C33.8658 112.687 34.639 112.392 34.9163 111.747C35.1865 111.119 34.8683 110.355 34.2234 110.078Z" fill="white"/>
<path d="M34.8159 108.7C33.4519 108.113 31.7818 108.724 31.1736 110.138L33.9297 111.323C33.8901 111.415 33.8267 111.454 33.7951 111.466C33.7649 111.478 33.7064 111.488 33.6309 111.456L34.8159 108.7ZM31.1736 110.138C30.5637 111.557 31.2516 113.196 32.6284 113.788L33.8134 111.032C33.8896 111.064 33.9241 111.116 33.9373 111.149C33.9516 111.184 33.9617 111.249 33.9297 111.323L31.1736 110.138ZM32.6284 113.788C34.0093 114.381 35.6791 113.771 36.2944 112.34L33.5383 111.155C33.5706 111.08 33.6263 111.04 33.6645 111.026C33.701 111.012 33.7546 111.006 33.8134 111.032L32.6284 113.788ZM36.2944 112.34C36.9078 110.913 36.184 109.288 34.8159 108.7L33.6309 111.456C33.5728 111.431 33.5418 111.39 33.5279 111.357C33.5138 111.323 33.4984 111.248 33.5383 111.155L36.2944 112.34Z" fill="#2B2B2B"/>
<path d="M25.99 105.426C25.4345 105.027 24.616 105.148 24.2168 105.703C23.8071 106.273 23.9532 107.088 24.5086 107.487C25.0787 107.897 25.8972 107.776 26.3069 107.206C26.7061 106.65 26.56 105.836 25.99 105.426Z" fill="white"/>
<path d="M26.8654 104.208C25.6597 103.341 23.8975 103.577 22.9988 104.828L25.4348 106.579C25.3763 106.66 25.3062 106.684 25.2726 106.689C25.2406 106.694 25.1812 106.692 25.1145 106.644L26.8654 104.208ZM22.9988 104.828C22.0976 106.082 22.4162 107.83 23.6332 108.705L25.3841 106.269C25.4515 106.317 25.4741 106.375 25.4799 106.41C25.4863 106.447 25.4821 106.513 25.4348 106.579L22.9988 104.828ZM23.6332 108.705C24.8537 109.582 26.6159 109.346 27.5249 108.081L25.0889 106.33C25.1366 106.264 25.1995 106.237 25.2399 106.231C25.2786 106.225 25.3322 106.232 25.3841 106.269L23.6332 108.705ZM27.5249 108.081C28.4314 106.82 28.0746 105.077 26.8654 104.208L25.1145 106.644C25.0631 106.607 25.0416 106.56 25.0353 106.525C25.0288 106.489 25.0299 106.412 25.0889 106.33L27.5249 108.081Z" fill="#2B2B2B"/>
</svg>
