<svg width="41" height="49" viewBox="0 0 41 49" fill="none" xmlns="http://www.w3.org/2000/svg">
<path fill-rule="evenodd" clip-rule="evenodd" d="M34.0157 4.92064C29.0372 -1.08624 19.2829 -0.925104 10.1087 5.28535C7.20941 7.25488 8.19985 9.92092 11.5112 12.3036C15.0485 14.8054 21.1908 16.9423 28.1673 17.4997C35.7143 18.0699 39.0369 10.9454 34.0157 4.92064ZM32.5655 9.29689C31.9453 13.5439 28.1101 14.0966 19.084 11.1322L13.8191 9.41156L16.7128 8.11557C25.8772 4.02871 33.266 4.55783 32.5655 9.29689ZM36.4604 26.8419C32.3588 23.0532 20.1075 19.7195 16.1794 21.335C13.611 22.3912 14.4597 24.197 21.2091 32.0189C26.5413 38.1985 29.3177 41.0837 31.8549 41.8417C40.2095 44.3759 43.1822 33.0503 36.4604 26.8419ZM36.5279 35.0803C34.7391 37.6884 28.0776 35.8355 24.6106 31.7859C21.7633 28.4703 19.9874 26.1273 20.4918 26.2378C20.7353 26.3144 22.3595 26.7416 24.0989 27.1918C32.292 29.3331 37.9879 32.961 36.5279 35.0803ZM10.438 24.8971C6.56829 18.7522 1.05435 18.2291 1.60304 27.294C1.69122 28.8829 1.53165 32.4459 1.25489 35.2091C0.380737 43.3049 1.67481 46.6233 6.20202 48.0114C9.68281 49.088 13.629 46.8292 15.8658 43.5072C21.3747 35.3422 12.5387 28.2017 10.438 24.8971ZM13.6135 41.4661C13.4455 43.5489 11.4265 44.3086 8.65648 43.3281C4.93053 41.999 4.23665 39.8823 5.19207 32.6713L5.86963 27.4471C6.26381 28.062 7.63843 30.2877 10.2154 33.8908C12.6256 37.1741 13.7423 39.7176 13.6135 41.4661Z" fill="#D2E2F5"/>
</svg>
