<svg width="35" height="21" viewBox="0 0 35 21" fill="none" xmlns="http://www.w3.org/2000/svg">
<path fill-rule="evenodd" clip-rule="evenodd" d="M13.8101 1.8384C13.8355 3.13187 15.3446 5.21158 16.3718 4.81847C16.8156 4.64093 16.8156 4.45072 16.3337 3.06848C15.1797 -0.215943 13.7848 0.79854 13.8101 1.8384ZM22.1797 4.76774C21.8246 5.76955 23.0547 5.94709 23.9044 5.02136C24.7667 4.07028 25.6924 2.65 26.187 1.68623C26.7323 0.760503 25.667 0.2913 24.7793 1.05217C23.7268 1.93985 22.4206 4.07028 22.1797 4.76774ZM4.70509 3.99419C3.91886 4.31122 6.55654 7.58296 7.62176 7.60832C8.86451 7.63368 8.96594 7.3547 8.10362 6.20072C6.74673 4.37463 5.60545 3.62644 4.70509 3.99419ZM16.6254 8.6989C16.1562 9.1681 15.5982 9.81485 15.3826 10.1192C13.5311 12.8837 13.5058 12.9091 12.6561 12.2623C10.6906 10.7913 7.45687 9.78948 8.09092 12.3511C8.48404 13.8982 9.65073 16.7261 9.95508 17.6645C10.7413 20.1373 11.1598 20.5431 12.5547 20.2134C16.0167 19.3764 20.9624 19.3511 24.5004 20.15C25.3754 20.3529 25.4261 20.2514 25.5149 18.4888C25.6924 14.9254 27.7467 11.4507 27.7467 10.3348C27.7467 9.07934 25.3754 10.0177 22.1544 12.5413L21.8247 12.7949L21.3554 12.4779C20.3917 11.8312 19.9098 12.3384 20.4551 13.4163C20.8989 14.2913 21.2667 14.583 22.2431 14.1138C22.8011 13.8475 23.5746 13.3402 24.6652 12.5667C25.0964 12.2623 25.4515 12.0467 25.4515 12.0848C25.4515 12.2623 24.6779 15.5848 24.6779 15.5975L22.7504 15.4326C21.2159 15.3692 21.0384 16.1808 22.6235 16.4217C22.7884 16.4471 24.4116 16.65 24.4116 16.65C24.4116 16.65 24.3482 17.3601 24.1707 17.7659C23.9805 18.1717 23.6634 18.2732 23.1435 18.0956C19.0728 16.7514 12.4406 18.3873 12.4279 18.3873C12.187 18.4254 9.98045 12.6047 10.158 12.4272C10.1834 12.4018 10.4496 12.5667 10.754 12.7949C14.1906 15.2931 14.5457 15.217 16.8156 11.5775L17.8808 9.86558L18.2993 10.487C19.5166 12.3004 21.2413 11.5014 20.2775 10.1699C19.9478 9.72609 19.4026 9.06666 18.5276 8.03948C18.1344 7.57028 17.5511 7.77317 16.6254 8.6989ZM33.1236 8.50868C32.6671 8.77499 30.283 11.0576 30.004 11.4888C29.408 12.4398 30.6507 12.6554 31.7794 11.7931C33.0982 10.7913 34.9624 9.06667 34.9624 8.8384C34.975 8.38188 33.745 8.15361 33.1236 8.50868ZM1.71232 14.583C3.56377 15.0395 4.62897 15.1536 5.04744 14.9254C5.73223 14.5576 5.41521 14.2913 3.79202 13.8855C3.63985 13.8475 2.14346 13.429 1.11628 13.429C0.380777 13.429 -1.25507 13.8348 1.71232 14.583Z" fill="#F3CF00"/>
</svg>
