<svg width="22" height="22" viewBox="0 0 22 22" fill="none" xmlns="http://www.w3.org/2000/svg">
<path d="M19.1483 7.88996C19.1394 7.24698 19.0136 6.61039 18.7765 6.00867C18.5709 5.50113 18.2568 5.04018 17.8545 4.65529C17.4521 4.2704 16.9702 3.97003 16.4396 3.77337C15.8186 3.5504 15.1625 3.42983 14.4994 3.41681C13.6456 3.3803 13.3749 3.37012 11.2075 3.37012C9.0401 3.37012 8.7623 3.37012 7.91469 3.41681C7.25184 3.42993 6.59611 3.55049 5.97541 3.77337C5.44471 3.9699 4.96274 4.27022 4.56034 4.65512C4.15793 5.04003 3.84396 5.50105 3.6385 6.00867C3.40493 6.60221 3.27916 7.22956 3.26662 7.86364C3.22846 8.68119 3.21692 8.94012 3.21692 11.0133C3.21692 13.0864 3.21692 13.3513 3.26662 14.1629C3.27993 14.7979 3.40508 15.4244 3.6385 16.0196C3.8443 16.527 4.15851 16.9879 4.56105 17.3726C4.96359 17.7573 5.4456 18.0575 5.9763 18.254C6.5953 18.4859 7.25114 18.6151 7.91558 18.636C8.77029 18.6725 9.04099 18.6836 11.2084 18.6836C13.3758 18.6836 13.6536 18.6836 14.5012 18.636C15.1643 18.6236 15.8204 18.5033 16.4413 18.2803C16.9718 18.0834 17.4536 17.783 17.8559 17.3981C18.2583 17.0133 18.5724 16.5524 18.7782 16.045C19.0117 15.4508 19.1368 14.8242 19.1501 14.1884C19.1883 13.3717 19.1998 13.1127 19.1998 11.0387C19.198 8.96559 19.198 8.70241 19.1483 7.88996V7.88996ZM11.2022 14.9337C8.93537 14.9337 7.09904 13.1773 7.09904 11.009C7.09904 8.84079 8.93537 7.0843 11.2022 7.0843C12.2904 7.0843 13.334 7.4978 14.1035 8.23382C14.873 8.96985 15.3053 9.96812 15.3053 11.009C15.3053 12.0499 14.873 13.0482 14.1035 13.7842C13.334 14.5203 12.2904 14.9337 11.2022 14.9337V14.9337ZM15.4686 7.8543C14.9387 7.8543 14.5118 7.44511 14.5118 6.93913C14.5118 6.819 14.5365 6.70005 14.5846 6.58907C14.6327 6.47809 14.7031 6.37724 14.7919 6.2923C14.8807 6.20736 14.9861 6.13998 15.1022 6.09401C15.2182 6.04804 15.3426 6.02438 15.4681 6.02438C15.5937 6.02438 15.7181 6.04804 15.8341 6.09401C15.9501 6.13998 16.0556 6.20736 16.1444 6.2923C16.2332 6.37724 16.3036 6.47809 16.3517 6.58907C16.3997 6.70005 16.4245 6.819 16.4245 6.93913C16.4245 7.44511 15.9967 7.8543 15.4686 7.8543Z" fill="#343434"/>
<path d="M11.202 13.5588C12.674 13.5588 13.8673 12.4174 13.8673 11.0094C13.8673 9.60137 12.674 8.45996 11.202 8.45996C9.73004 8.45996 8.53674 9.60137 8.53674 11.0094C8.53674 12.4174 9.73004 13.5588 11.202 13.5588Z" fill="#343434"/>
</svg>
