<svg width="17" height="16" viewBox="0 0 17 16" fill="none" xmlns="http://www.w3.org/2000/svg">
<path d="M16.1483 4.88996C16.1394 4.24698 16.0136 3.61039 15.7765 3.00867C15.5709 2.50113 15.2568 2.04018 14.8545 1.65529C14.4521 1.2704 13.9702 0.970033 13.4396 0.773371C12.8186 0.550399 12.1625 0.429834 11.4994 0.41681C10.6456 0.380305 10.3749 0.370117 8.20748 0.370117C6.0401 0.370117 5.7623 0.370117 4.91469 0.41681C4.25184 0.42993 3.59611 0.550493 2.97541 0.773371C2.44471 0.969896 1.96274 1.27022 1.56034 1.65512C1.15793 2.04003 0.84396 2.50105 0.638503 3.00867C0.404928 3.60221 0.279156 4.22956 0.266621 4.86364C0.228457 5.68119 0.216919 5.94012 0.216919 8.01327C0.216919 10.0864 0.216919 10.3513 0.266621 11.1629C0.279935 11.7979 0.405078 12.4244 0.638503 13.0196C0.844304 13.527 1.15851 13.9879 1.56105 14.3726C1.96359 14.7573 2.4456 15.0575 2.9763 15.254C3.5953 15.4859 4.25114 15.6151 4.91558 15.636C5.77029 15.6725 6.04099 15.6836 8.20837 15.6836C10.3758 15.6836 10.6536 15.6836 11.5012 15.636C12.1643 15.6236 12.8204 15.5033 13.4413 15.2803C13.9718 15.0834 14.4536 14.783 14.8559 14.3981C15.2583 14.0133 15.5724 13.5524 15.7782 13.045C16.0117 12.4508 16.1368 11.8242 16.1501 11.1884C16.1883 10.3717 16.1998 10.1127 16.1998 8.03874C16.198 5.96559 16.198 5.70241 16.1483 4.88996ZM8.20216 11.9337C5.93537 11.9337 4.09904 10.1773 4.09904 8.00902C4.09904 5.84079 5.93537 4.0843 8.20216 4.0843C9.29037 4.0843 10.334 4.4978 11.1035 5.23383C11.873 5.96985 12.3053 6.96812 12.3053 8.00902C12.3053 9.04992 11.873 10.0482 11.1035 10.7842C10.334 11.5203 9.29037 11.9337 8.20216 11.9337ZM12.4686 4.8543C11.9387 4.8543 11.5118 4.44511 11.5118 3.93913C11.5118 3.819 11.5365 3.70005 11.5846 3.58907C11.6327 3.47809 11.7031 3.37724 11.7919 3.2923C11.8807 3.20736 11.9861 3.13998 12.1022 3.09401C12.2182 3.04804 12.3426 3.02438 12.4681 3.02438C12.5937 3.02438 12.7181 3.04804 12.8341 3.09401C12.9501 3.13998 13.0556 3.20736 13.1444 3.2923C13.2332 3.37724 13.3036 3.47809 13.3517 3.58907C13.3997 3.70005 13.4245 3.819 13.4245 3.93913C13.4245 4.44511 12.9967 4.8543 12.4686 4.8543Z" fill="#343434"/>
</svg>
