<svg width="15" height="12" viewBox="0 0 15 12" fill="none" xmlns="http://www.w3.org/2000/svg">
<path d="M5.1291 11.6457C6.20461 11.6524 7.27075 11.4456 8.2657 11.0371C9.26064 10.6287 10.1646 10.0267 10.9251 9.26621C11.6856 8.5057 12.2875 7.60176 12.696 6.60681C13.1045 5.61187 13.3113 4.54572 13.3045 3.47022V3.09456C13.8621 2.6861 14.3446 2.18416 14.7308 1.61101C14.2058 1.8406 13.6504 1.99288 13.0817 2.06308C13.6846 1.70383 14.137 1.13835 14.3551 0.471284C13.7932 0.808388 13.1771 1.04537 12.5341 1.17167C12.1011 0.710286 11.5281 0.404464 10.9038 0.301526C10.2795 0.198588 9.63861 0.304273 9.0804 0.602227C8.52219 0.900182 8.07773 1.3738 7.8158 1.94979C7.55386 2.52578 7.48906 3.17204 7.6314 3.78858C6.48915 3.73251 5.37151 3.43649 4.35126 2.91978C3.33102 2.40308 2.43104 1.67728 1.70993 0.789642C1.34632 1.42074 1.23611 2.16643 1.40161 2.87573C1.56711 3.58503 1.99597 4.20494 2.60134 4.60994C2.15475 4.59272 1.7185 4.47057 1.3279 4.25338V4.28522C1.32393 4.94475 1.54612 5.58572 1.95743 6.10131C2.36874 6.61689 2.94432 6.97594 3.58825 7.11861C3.17288 7.23033 2.73778 7.24773 2.31481 7.16955C2.50124 7.73201 2.8571 8.22304 3.33359 8.57528C3.81009 8.92752 4.38388 9.12373 4.97629 9.137C3.96341 9.95233 2.70454 10.4011 1.40431 10.4104C1.17634 10.4038 0.948896 10.3847 0.723022 10.3531C2.03909 11.1916 3.56864 11.6337 5.1291 11.6266" fill="#343434"/>
</svg>
