<svg width="18" height="18" viewBox="0 0 18 18" fill="none" xmlns="http://www.w3.org/2000/svg">
<path d="M16.8442 5.1344V7.87865C16.6965 7.87865 16.5195 7.90865 16.3425 7.90865C15.0557 7.90208 13.8123 7.44213 12.831 6.60965V12.4521C12.8364 13.6024 12.4632 14.7225 11.769 15.6396C11.2797 16.2979 10.6434 16.8327 9.91083 17.2014C9.17826 17.5702 8.36966 17.7627 7.5495 17.7636C6.65728 17.7636 5.77983 17.5359 5.00013 17.1022C4.22044 16.6684 3.56429 16.043 3.09375 15.2849C4.038 16.1699 5.30625 16.7309 6.69375 16.7309C7.51024 16.7327 8.31557 16.5412 9.04377 16.1718C9.77196 15.8025 10.4023 15.266 10.8832 14.6061C11.5328 13.7211 11.946 12.6291 11.946 11.4194V5.5469C12.8903 6.3734 14.1 6.8459 15.4575 6.8459C15.6345 6.8459 15.7822 6.8459 15.9592 6.8159V5.0459C16.2247 5.10515 16.461 5.1344 16.7265 5.1344H16.8442Z" fill="#343434"/>
<path d="M8.28764 7.16989V10.2096C8.07606 10.1513 7.85762 10.1215 7.63814 10.1211C6.33914 10.1211 5.27714 11.2131 5.27714 12.5406C5.27714 12.8361 5.33639 13.1016 5.42489 13.3671C4.83464 12.9246 4.42139 12.2159 4.42139 11.4194C4.42139 10.0919 5.48339 8.99989 6.78239 8.99989C7.01789 8.99989 7.22489 9.02989 7.43114 9.08839V7.14064H7.60814C7.84439 7.14064 8.08064 7.14064 8.28689 7.17064L8.28764 7.16989ZM13.2736 2.95039C12.7426 2.47789 12.3586 1.82914 12.1524 1.15039H12.8611V1.56364C12.926 2.04471 13.0651 2.51279 13.2736 2.95114V2.95039Z" fill="#343434"/>
<path d="M15.9887 5.07514V6.84514C15.8409 6.87514 15.6639 6.87514 15.4869 6.87514C14.2003 6.86899 12.9569 6.40958 11.9754 5.57764V11.4201C11.9805 12.5699 11.6073 13.6894 10.9134 14.6061C9.93916 15.9051 8.43466 16.7309 6.72316 16.7309C5.33566 16.7309 4.06741 16.1706 3.12316 15.2849C2.60356 14.4423 2.32785 13.4721 2.32666 12.4821C2.32666 9.61939 4.59916 7.28839 7.43116 7.19989V9.14764C7.21982 9.08934 7.00164 9.05957 6.78241 9.05914C5.48341 9.05914 4.42141 10.1504 4.42141 11.4786C4.42141 12.2751 4.80541 13.0131 5.42491 13.4264C5.74966 14.3414 6.63466 15.0194 7.63741 15.0194C8.93641 15.0194 9.99841 13.9274 9.99841 12.5999V1.15039H12.1524C12.3594 1.85914 12.7427 2.47789 13.2737 2.95039C13.5419 3.48258 13.9243 3.94898 14.3936 4.31627C14.863 4.68356 15.4076 4.94269 15.9887 5.07514Z" fill="#343434"/>
<path d="M7.43108 6.13786V7.13986C4.59833 7.22836 2.32658 9.55936 2.32658 12.4221C2.32658 13.4549 2.62133 14.3991 3.12308 15.2256C2.60594 14.7241 2.19556 14.1233 1.91664 13.4591C1.63773 12.7949 1.49603 12.0812 1.50008 11.3609C1.50008 8.43886 3.86108 6.07861 6.75234 6.07861C6.98858 6.07861 7.22483 6.10861 7.43108 6.13786Z" fill="#343434"/>
<path d="M12.1523 1.1505H9.99831V12.5408C9.99831 13.8683 8.93631 14.961 7.63806 14.961C6.6053 14.961 5.74955 14.3115 5.4248 13.3672C5.80805 13.6327 6.27981 13.8098 6.78231 13.8098C8.07981 13.8098 9.14255 12.7477 9.14255 11.4195V0H12.0053V0.05925C12.0053 0.177 12.0053 0.29475 12.0346 0.41325C12.0346 0.6495 12.0938 0.915 12.1523 1.1505V1.1505ZM15.9886 3.98325V5.046C14.8081 4.80975 13.8053 4.01325 13.2443 2.9505C13.986 3.6449 14.9731 4.01637 15.9886 3.98325V3.98325Z" fill="#343434"/>
</svg>
