<svg width="27" height="27" viewBox="0 0 27 27" fill="none" xmlns="http://www.w3.org/2000/svg">
<path d="M5.905 17.7023H12.6441C13.1094 17.7023 13.4916 18.0799 13.4916 18.5452C13.4916 19.0105 13.114 19.3926 12.6441 19.388L5.905 19.3883C5.43971 19.3926 5.05754 19.0107 5.06212 18.5452C5.06212 18.0799 5.43975 17.7023 5.905 17.7023V17.7023ZM5.905 12.6444H21.0785C21.5438 12.6444 21.9214 13.0175 21.9259 13.4828C21.9259 13.9526 21.5483 14.3303 21.0785 14.3303H5.905C5.43971 14.3303 5.05754 13.9526 5.06212 13.4828C5.06212 13.0178 5.43975 12.6444 5.905 12.6444ZM5.905 7.58658H21.0785C21.5483 7.58203 21.9259 7.96421 21.9259 8.42946C21.9214 8.89475 21.5438 9.27235 21.0785 9.27235H5.905C5.43971 9.27235 5.06212 8.89472 5.06212 8.42946C5.05757 7.96417 5.43975 7.58231 5.905 7.58658ZM13.4916 0C6.03212 0 0 6.02326 0 13.483C0 20.9425 6.03243 26.9746 13.4916 26.9746C20.9514 26.9746 26.9746 20.9422 26.9746 13.483C26.9746 6.02326 20.9514 0 13.4916 0Z" fill="#EF554A"/>
</svg>
